<svg width="28" height="28" viewBox="0 0 28 28" fill="none" xmlns="http://www.w3.org/2000/svg">
<path d="M14 27.3333C6.63619 27.3333 0.666656 21.3638 0.666656 14C0.666656 6.63616 6.63619 0.666626 14 0.666626C21.3638 0.666626 27.3333 6.63616 27.3333 14C27.3252 21.3604 21.3604 27.3252 14 27.3333ZM14 3.33329C8.10895 3.33329 3.33332 8.10892 3.33332 14C3.33332 19.891 8.10895 24.6666 14 24.6666C19.891 24.6666 24.6667 19.891 24.6667 14C24.66 8.11166 19.8883 3.33991 14 3.33329ZM19.3333 20.6666H8.66666V18H19.3333V20.6666ZM9.33332 14C8.22875 14 7.33332 13.1045 7.33332 12C7.33332 10.8954 8.22875 9.99996 9.33332 9.99996C10.4379 9.99996 11.3333 10.8954 11.3333 12C11.3333 13.1045 10.4379 14 9.33332 14ZM18.6573 13.9813C17.5579 13.9813 16.6667 13.09 16.6667 11.9906C16.6667 10.8912 17.5579 9.99996 18.6573 9.99996C19.7567 9.99996 20.648 10.8912 20.648 11.9906C20.6465 13.0894 19.7561 13.9798 18.6573 13.9813Z" fill="#23A6F0"/>
</svg>
